<svg width="124" height="124" viewBox="0 0 124 124" fill="none" xmlns="http://www.w3.org/2000/svg">
<path d="M98.9815 99L99 98.9969V71.8574C99 58.5806 96.1418 48.3532 80.6203 48.3532C73.1586 48.3532 68.1513 52.4478 66.107 56.3297H65.8912V49.5927H51.1744V98.9969H66.4986V74.5338C66.4986 68.0927 67.7196 61.8643 75.6962 61.8643C83.5556 61.8643 83.6728 69.215 83.6728 74.9469V99H98.9815Z" fill="white"/>
<path d="M26.221 49.5957H41.5637V99H26.221V49.5957Z" fill="white"/>
<path d="M33.8862 25C28.9806 25 25 28.9806 25 33.8862C25 38.7917 28.9806 42.8556 33.8862 42.8556C38.7917 42.8556 42.7723 38.7917 42.7723 33.8862C42.7692 28.9806 38.7887 25 33.8862 25Z" fill="white"/>
</svg>
