<svg width="24" height="24" viewBox="0 0 24 24" fill="none" xmlns="http://www.w3.org/2000/svg">
<g clip-path="url(#clip0_57_1528)">
<path d="M23.4101 14.537L21.8421 12.188L19.3421 13.853L20.9131 16.2C20.9661 16.273 20.9971 16.3596 21.0024 16.4496C21.0077 16.5396 20.9871 16.6293 20.9431 16.708C20.8936 16.7992 20.8197 16.8747 20.7295 16.9261C20.6394 16.9776 20.5368 17.0028 20.4331 16.999H14.5081V13.5L9.83508 17.762C9.73229 17.8557 9.65018 17.9698 9.59399 18.0971C9.53781 18.2243 9.50879 18.3619 9.50879 18.501C9.50879 18.6401 9.53781 18.7777 9.59399 18.9049C9.65018 19.0322 9.73229 19.1463 9.83508 19.24L14.5081 23.5V20H20.4331C21.0794 20.0027 21.7143 19.8297 22.2698 19.4994C22.8254 19.1691 23.2807 18.6941 23.5871 18.125C23.8856 17.5671 24.0269 16.9385 23.9957 16.3065C23.9645 15.6745 23.7621 15.0628 23.4101 14.537Z" fill="#A5A5A5"/>
<path d="M11.3 3.265C11.3503 3.18354 11.4207 3.11638 11.5044 3.06997C11.5881 3.02356 11.6823 2.99947 11.778 3C11.8747 2.99362 11.9712 3.01348 12.0575 3.05749C12.1437 3.1015 12.2165 3.16802 12.268 3.25L15.4 7.946L12.5 9.764L18.592 11.464C18.726 11.5013 18.8663 11.5102 19.0039 11.4902C19.1415 11.4702 19.2735 11.4217 19.3913 11.3478C19.5091 11.274 19.6102 11.1763 19.6882 11.0612C19.7661 10.946 19.8192 10.8158 19.844 10.679L20.97 4.452L17.942 6.352L14.764 1.588C14.4385 1.08523 13.9888 0.674926 13.4584 0.396746C12.9279 0.118566 12.3347 -0.0180847 11.736 1.16392e-06C11.1405 0.0059406 10.5559 0.161426 10.0361 0.452177C9.51626 0.742928 9.07782 1.15963 8.76103 1.664L7.58203 3.522L10.115 5.13L11.3 3.265Z" fill="#A5A5A5"/>
<path d="M6.26362 11.2101L9.00062 13.1561L8.23662 6.87906C8.21976 6.74097 8.17428 6.60792 8.10307 6.48841C8.03187 6.36891 7.93652 6.26557 7.82311 6.185C7.7097 6.10444 7.58073 6.04843 7.44445 6.02054C7.30816 5.99266 7.16755 5.99351 7.03162 6.02305L0.852617 7.36606L3.81462 9.46605L0.543617 14.6261C0.207048 15.1529 0.0199598 15.7613 0.00234639 16.3862C-0.015267 17.0111 0.137257 17.6291 0.443617 18.1741C0.754611 18.7314 1.20922 19.1953 1.76019 19.5175C2.31116 19.8396 2.93837 20.0084 3.57662 20.0061L7.00662 20.0001L7.00062 17.0001L3.57362 17.0061C3.47227 17.009 3.37205 16.9841 3.28389 16.934C3.19572 16.8839 3.12299 16.8106 3.07362 16.7221C3.02789 16.6462 3.00473 16.5589 3.00686 16.4703C3.00898 16.3818 3.0363 16.2956 3.08562 16.2221L6.26362 11.2101Z" fill="#A5A5A5"/>
</g>
<defs>
<clipPath id="clip0_57_1528">
<rect width="24" height="24" fill="white"/>
</clipPath>
</defs>
</svg>
