<svg width="24" height="23" viewBox="0 0 24 23" fill="none" xmlns="http://www.w3.org/2000/svg">
<path d="M17.5 0.916992C16.3739 0.934507 15.2724 1.24885 14.3067 1.82826C13.341 2.40768 12.5453 3.23166 12 4.21699C11.4546 3.23166 10.6589 2.40768 9.6932 1.82826C8.7275 1.24885 7.62601 0.934507 6.49996 0.916992C4.7049 0.994983 3.01366 1.78025 1.79574 3.10122C0.577818 4.4222 -0.0677922 6.17152 -4.17093e-05 7.96699C-4.17093e-05 12.514 4.78596 17.48 8.79996 20.847C9.69618 21.6001 10.8293 22.013 12 22.013C13.1706 22.013 14.3037 21.6001 15.2 20.847C19.214 17.48 24 12.514 24 7.96699C24.0677 6.17152 23.4221 4.4222 22.2042 3.10122C20.9863 1.78025 19.295 0.994983 17.5 0.916992Z" fill="#A5A5A5"/>
</svg>
