<svg width="43" height="43" viewBox="0 0 43 43" fill="none" xmlns="http://www.w3.org/2000/svg">
<path d="M41.0855 22.1401C41.4839 22.1401 41.8575 22.1401 42.299 22.1401C42.05 26.4495 40.7821 30.373 38.2283 33.847C34.1847 39.3478 28.7284 42.1826 21.9702 42.6345C21.9702 42.2169 21.9702 41.8288 21.9702 41.4134C27.1164 41.1098 31.6082 39.2336 35.2556 35.536C38.8894 31.8521 40.8115 27.3602 41.0855 22.1401Z" fill="#E4E4E4"/>
<path d="M20.3334 42.591C9.92793 42.3536 0.430299 33.6962 0.0205078 22.1514C0.405394 22.1514 0.79028 22.1514 1.19781 22.1514C1.22271 22.4595 1.24535 22.7745 1.27026 23.0917C1.48987 25.7006 2.17361 28.1726 3.40977 30.4824C4.06634 31.7081 4.74102 32.9247 5.63985 33.9906C7.46919 36.1544 9.56342 37.9918 12.1082 39.2654C13.7247 40.0734 15.4114 40.676 17.1864 41.0001C18.1577 41.1781 19.1448 41.274 20.1274 41.395C20.2836 41.4132 20.338 41.4589 20.3312 41.6164C20.3267 41.9405 20.3334 42.2669 20.3334 42.591Z" fill="#E4E4E4"/>
<path d="M21.9658 1.17548C21.9658 0.794304 21.9658 0.413129 21.9658 0C27.4403 0.308135 32.197 2.28248 36.073 6.18553C39.9649 10.1023 41.9686 14.8978 42.2991 20.4921C41.8984 20.4921 41.552 20.5013 41.2056 20.483C41.1558 20.4807 41.0788 20.3597 41.0675 20.2867C40.9362 19.3052 40.866 18.3146 40.6826 17.3446C40.1958 14.7494 39.2291 12.3459 37.753 10.1525C35.4844 6.78126 32.5094 4.28194 28.7783 2.70702C26.9082 1.91729 24.9566 1.44709 22.9348 1.28047C22.6405 1.25993 22.3417 1.22798 22.0428 1.20059C22.0202 1.1983 21.9975 1.18689 21.9658 1.17548Z" fill="#E4E4E4"/>
<path d="M20.3197 0.00466919C20.3197 0.424646 20.3197 0.798973 20.3197 1.187C19.8488 1.23264 19.3915 1.27829 18.9319 1.32394C17.0527 1.50883 15.2483 1.99499 13.5027 2.71626C11.293 3.62925 9.33236 4.93255 7.57773 6.56224C5.71443 8.29236 4.23828 10.3078 3.14701 12.6063C2.27309 14.4482 1.66633 16.3792 1.41502 18.4106C1.33805 19.036 1.27918 19.6614 1.22258 20.2891C1.209 20.4443 1.16372 20.5036 1.00523 20.4991C0.681475 20.4877 0.359982 20.4945 0 20.4945C0.26942 15.0166 2.25498 10.2987 6.01555 6.40703C9.91195 2.37617 14.7253 0.303674 20.3197 0.00466919Z" fill="#E4E4E4"/>
<g clip-path="url(#clip0_916_1956)">
<path d="M31.9632 18.4076L24.3679 10.5371L21.8662 13.1294L27.6923 19.1666H10V22.8333H27.6923L21.8662 28.8704L24.3679 31.4628L31.9632 23.5923C32.6266 22.9047 32.9992 21.9722 32.9992 20.9999C32.9992 20.0277 32.6266 19.0952 31.9632 18.4076Z" fill="white"/>
</g>
<defs>
<clipPath id="clip0_916_1956">
<rect width="23" height="22" fill="white" transform="translate(10 10)"/>
</clipPath>
</defs>
</svg>
