<svg width="70" height="45" viewBox="0 0 70 45" fill="none" xmlns="http://www.w3.org/2000/svg">
<path d="M25.4941 22.229C25.4941 29.6682 29.2407 36.2504 34.945 40.1937C40.6155 36.187 44.3197 29.588 44.3197 22.1234C44.3197 14.7222 40.6747 8.17384 35.0846 4.15869C29.3041 8.09362 25.4941 14.7222 25.4941 22.229Z" fill="#E4E4E4"/>
<path d="M22.441 22.229C22.441 14.1691 26.3017 6.99167 32.2725 2.44032C29.2406 0.886613 25.807 0 22.162 0C9.92447 0 0 9.90487 0 22.1276C0 34.3504 9.92024 44.2553 22.162 44.2553C25.7436 44.2553 29.1222 43.4025 32.116 41.8952C26.2383 37.3354 22.441 30.217 22.441 22.229Z" fill="#E4E4E4"/>
<path d="M47.3764 43.9556C35.3757 43.9556 25.6162 34.2069 25.6162 22.229C25.6162 10.2469 35.38 0.502441 47.3764 0.502441C59.3771 0.502441 69.1367 10.2511 69.1367 22.229C69.1367 34.2069 59.3729 43.9556 47.3764 43.9556ZM47.3764 3.54651C37.0587 3.54651 28.6692 11.9273 28.6692 22.2248C28.6692 32.5265 37.0629 40.903 47.3764 40.903C57.6941 40.903 66.0879 32.5223 66.0879 22.2248C66.0836 11.9273 57.6899 3.54651 47.3764 3.54651Z" fill="#E4E4E4"/>
</svg>
