<svg width="54" height="52" viewBox="0 0 54 52" fill="none" xmlns="http://www.w3.org/2000/svg">
<path d="M28.4747 27.9632C33.2826 30.2008 38.2469 31.3155 42.4417 31.0959C42.4671 31.0959 42.4924 31.0917 42.5178 31.0917L42.818 1.32216C42.8307 0.270877 41.6509 -0.362428 40.7799 0.224434L15.7002 17.1168C17.7299 20.9799 22.4236 25.1428 28.4747 27.9632Z" fill="#E4E4E4"/>
<path d="M41.3925 33.95C37.016 33.95 32.0558 32.7509 27.2733 30.5259C20.6768 27.4565 15.7166 23.074 13.3317 18.7042L0.578353 27.2961C-0.41959 27.9674 -0.055934 29.5126 1.13229 29.6731L22.5458 32.582C23.8059 32.7551 24.9603 33.3758 25.7976 34.33L40.0267 50.5721C40.8174 51.4756 42.3059 50.9268 42.3186 49.7235L42.4793 33.9204C42.1283 33.9415 41.7646 33.95 41.3925 33.95Z" fill="#E4E4E4"/>
<path d="M41.3925 31.6955C37.0159 31.6955 32.0558 30.4964 27.2733 28.2714C16.0253 23.0319 9.52175 13.9883 12.4691 7.68056C15.4164 1.37285 26.5375 0.532668 37.7855 5.77221C41.4644 7.48635 44.8007 9.70714 47.4309 12.1981C47.9975 12.7343 48.0229 13.6336 47.4859 14.1994C46.9446 14.7651 46.0482 14.7905 45.4815 14.2543C43.0712 11.9701 39.9971 9.92668 36.5888 8.3392C27.1084 3.92296 17.2389 4.17206 15.0443 8.87962C12.8454 13.5872 18.998 21.2924 28.4784 25.7086C33.2863 27.9463 38.2464 29.0609 42.4454 28.8414C46.323 28.6387 49.0124 27.3341 50.0272 25.1682C51.0802 22.9094 50.0611 20.334 49.0208 18.565C48.6234 17.8894 48.8475 17.0239 49.524 16.627C50.2006 16.2302 51.0675 16.4539 51.4649 17.1295C53.427 20.4522 53.8287 23.7327 52.5982 26.363C51.1225 29.5211 47.5704 31.4041 42.5976 31.6659C42.1959 31.687 41.7985 31.6955 41.3925 31.6955Z" fill="#E4E4E4"/>
</svg>
