<svg width="42" height="51" viewBox="0 0 42 51" fill="none" xmlns="http://www.w3.org/2000/svg">
<path d="M5.72607 22.4058C8.61841 24.3311 12.5468 24.8884 15.8873 24.8884C20.5557 24.8884 24.1034 23.9089 26.5222 21.9414C28.9452 19.9782 30.1545 17.3985 30.1545 14.2024C30.1545 10.5124 28.2221 7.05034 24.8688 5.38263C23.7863 4.84222 22.6784 4.41578 21.4986 4.13291C19.7903 3.72337 17.9213 3.51648 15.8873 3.51648C11.219 3.51648 7.6712 4.50023 5.25246 6.46347C2.82949 8.42672 1.62012 11.0064 1.62012 14.2024C1.62012 16.1023 1.97532 17.7321 2.68995 19.0916C3.42572 20.4933 4.48287 21.5741 5.72607 22.4058ZM12.551 6.88568C13.3502 5.50507 14.4623 4.81265 15.8915 4.81265C17.3166 4.81265 18.4329 5.50507 19.2321 6.88568C20.0313 8.26628 20.433 10.7066 20.433 14.2024C20.433 17.6983 20.0313 20.1386 19.2321 21.5192C18.4329 22.8998 17.3208 23.5922 15.8915 23.5922C14.4665 23.5922 13.3502 22.904 12.551 21.5192C11.7518 20.1386 11.3501 17.6983 11.3501 14.2024C11.3501 10.7066 11.7475 8.26628 12.551 6.88568Z" fill="#E4E4E4"/>
<path d="M29.9982 30.6177C28.1588 28.7389 25.6217 27.8016 22.3784 27.8016H10.0563C8.11116 27.8016 6.75802 27.6074 6.0011 27.219C5.40065 26.9108 4.92282 26.3999 4.8763 25.6991C4.83824 25.1333 5.1131 24.7069 5.43024 24.2804C3.34979 24.1031 1.10865 25.2853 0.427849 27.2907C-0.502437 30.0351 0.288304 33.0707 2.59288 34.8566C4.32236 36.195 6.80875 36.8663 10.0521 36.8663H22.3741C27.5626 36.8663 30.1589 38.268 30.1589 41.0757C30.1589 43.2754 28.9369 45.1246 26.4928 46.6108C23.778 48.2658 20.5685 49.0384 17.414 49.2242C14.0227 49.4226 10.9062 48.8949 7.76019 47.6663C9.03299 46.7248 9.82796 45.1626 9.81527 43.5793C9.80258 41.9961 8.97379 40.4381 7.65448 39.56C6.33939 38.6818 4.56761 38.5129 3.11721 39.1504C2.13619 39.5811 1.32007 40.3495 0.761897 41.2615C0.224868 42.1396 -0.088046 43.1782 0.0218968 44.2042C0.148754 45.3864 0.833786 46.463 1.73024 47.2483C4.30967 49.524 8.40715 50.1953 11.7139 50.5584C15.4393 50.9679 19.0801 50.6681 22.7336 49.9039C25.7443 49.2749 28.772 47.8605 30.7044 45.3906C32.1971 43.4822 32.7553 40.8604 32.7553 38.4876C32.751 35.1184 31.8334 32.4965 29.9982 30.6177Z" fill="#E4E4E4"/>
<path d="M37.1707 10.9752C39.7279 10.0204 41.0257 7.17646 40.0693 4.62317C39.113 2.06988 36.2647 0.774103 33.7074 1.72896C31.1502 2.68382 29.8524 5.52773 30.8088 8.08102C31.7651 10.6343 34.6134 11.9301 37.1707 10.9752Z" fill="#E4E4E4"/>
</svg>
