<svg width="46" height="49" viewBox="0 0 46 49" fill="none" xmlns="http://www.w3.org/2000/svg">
<path d="M22.9442 0C10.2712 0 0 10.2553 0 22.9087H45.8885C45.8885 10.2553 35.6173 0 22.9442 0Z" fill="#E4E4E4"/>
<path d="M43.3764 25.56C43.3764 36.8117 34.2088 45.9608 22.9439 45.9608C11.6748 45.9608 2.51145 36.8075 2.51145 25.56H0.00390625C0.00390625 38.1923 10.2962 48.4687 22.9481 48.4687C35.6 48.4687 45.8924 38.1923 45.8924 25.56H43.3764Z" fill="#E4E4E4"/>
<path d="M22.9444 42.7311C32.429 42.7311 40.1462 35.0259 40.1462 25.5559H37.6386C37.6386 33.6453 31.0463 40.2232 22.9486 40.2232C14.8466 40.2232 8.25854 33.6411 8.25854 25.5559H5.75098C5.74253 35.0301 13.4597 42.7311 22.9444 42.7311Z" fill="#E4E4E4"/>
</svg>
