<svg width="60" height="41" viewBox="0 0 60 41" fill="none" xmlns="http://www.w3.org/2000/svg">
<path d="M33.6591 9.71912C34.6867 8.68894 35.3252 7.26612 35.3252 5.69553C35.3252 2.55011 32.7711 0 29.6208 0C27.6292 0 25.8785 1.02174 24.8595 2.567C24.5888 2.83721 1.88139 30.7828 1.66996 31.1037C0.642422 32.1339 0.00390625 33.5567 0.00390625 35.1273C0.00390625 38.2727 2.55797 40.8228 5.70825 40.8228C7.69991 40.8228 9.45053 39.8011 10.4696 38.2558C10.7402 37.9814 33.4477 10.04 33.6591 9.71912Z" fill="#E4E4E4"/>
<path d="M46.802 22.9763C47.8338 21.9461 48.4723 20.5233 48.4723 18.9484C48.4723 15.803 45.9182 13.2529 42.768 13.2529C40.7763 13.2529 39.0257 14.2747 38.0024 15.8199C37.7275 16.0943 25.8029 30.7701 25.5873 31.0952C24.5555 32.1254 23.917 33.5482 23.917 35.123C23.917 38.2684 26.471 40.8186 29.6213 40.8186C31.613 40.8186 33.3636 39.7968 34.3869 38.2516C34.6576 37.9813 46.5864 23.3014 46.802 22.9763Z" fill="#E4E4E4"/>
<path d="M59.2427 5.69553C59.2427 8.84094 56.6886 11.391 53.5383 11.391C50.388 11.391 47.834 8.84094 47.834 5.69553C47.834 2.55011 50.388 0 53.5383 0C56.6886 0 59.2427 2.55011 59.2427 5.69553Z" fill="#E4E4E4"/>
<path d="M11.4087 5.69553C11.4087 8.84094 8.85462 11.391 5.70434 11.391C2.55405 11.391 0 8.84094 0 5.69553C0 2.55011 2.55405 0 5.70434 0C8.85462 0 11.4087 2.55011 11.4087 5.69553Z" fill="#E4E4E4"/>
</svg>
