<svg width="67" height="68" viewBox="0 0 67 68" fill="none" xmlns="http://www.w3.org/2000/svg">
<path d="M37.2348 63.9134C37.2348 63.7858 37.2348 63.6475 37.2348 63.5128C37.2348 55.5703 37.2348 47.6315 37.2207 39.6891C37.2207 39.3061 37.3332 39.0579 37.6639 38.8913C38.6029 38.4232 39.5384 37.9552 40.4775 37.4836C42.0567 36.6894 43.6358 35.8916 45.2115 35.0938C45.31 35.0442 45.4014 34.9768 45.5632 34.8775C45.3557 34.7499 45.1974 34.6364 45.0286 34.5478C42.5455 33.2749 40.0625 31.9984 37.5724 30.7361C37.3016 30.5978 37.2348 30.4347 37.2348 30.1475C37.2418 22.1803 37.2418 14.2131 37.2418 6.24939C37.2418 6.10047 37.2418 5.95155 37.2418 5.71753C40.175 6.1182 42.9289 6.93017 45.5667 8.1428C51.0463 10.6638 55.3688 14.5499 58.4356 19.7409C64.186 29.4597 64.1544 41.9335 57.2187 51.8367C54.0252 56.3965 49.861 59.7614 44.7648 61.9491C42.1446 63.0695 38.202 64.0907 37.2348 63.9134ZM45.8023 18.1098C45.7601 18.1346 45.7214 18.1595 45.6792 18.1843C45.6792 22.3115 45.6792 26.4352 45.6792 30.5943C48.3557 30.5943 50.997 30.5943 53.6876 30.5943C52.5657 25.414 49.8646 21.3187 45.8023 18.1098ZM53.7228 39.1537C50.9795 39.1537 48.3381 39.1537 45.7039 39.1537C45.7039 43.3128 45.7039 47.4365 45.7039 51.5601C45.739 51.5743 45.7777 51.5885 45.8129 51.5991C49.9103 48.4257 52.5235 44.2879 53.7228 39.1537Z" fill="#FE5D17"/>
<path d="M29.5748 5.13257C29.5748 11.0291 29.5748 16.8299 29.5748 22.691C26.7788 22.691 23.9968 22.691 21.1866 22.691C21.1866 20.9855 21.1866 19.2835 21.1866 17.5816C21.1444 17.5639 21.1022 17.5461 21.0635 17.5284C16.3929 21.1238 13.632 25.8892 12.8652 31.7751C11.7503 40.3238 16.3964 47.7131 21.1444 51.0213C21.1444 49.2697 21.1444 47.5606 21.1444 45.8303C23.9932 45.8303 26.7752 45.8303 29.5783 45.8303C29.5783 51.6914 29.5783 57.5241 29.5783 63.4419C20.2616 61.9669 13.1888 57.1766 8.22272 49.1704C2.80995 38.9765 2.78533 28.8144 8.63421 18.819C11.483 13.9543 15.5734 10.3235 20.638 7.85213C23.4586 6.47285 26.413 5.55096 29.5748 5.13257Z" fill="#222325"/>
<path d="M32.1885 4.94107C32.3292 4.93398 32.4417 4.92334 32.5543 4.92334C33.2366 4.92334 33.9154 4.92334 34.6328 4.92334C34.6328 24.478 34.6328 44.0291 34.6328 63.6121C33.8274 63.6121 33.0255 63.6121 32.1885 63.6121C32.1885 44.0823 32.1885 24.5347 32.1885 4.94107Z" fill="#222325"/>
<path d="M64.387 35.569C65.006 35.569 65.5863 35.569 66.2721 35.569C65.8852 42.2633 63.9157 48.3584 59.9484 53.755C53.667 62.3001 45.1908 66.7039 34.6924 67.406C34.6924 66.7571 34.6924 66.1543 34.6924 65.509C42.6867 65.0374 49.6645 62.1229 55.3305 56.3788C60.9754 50.656 63.9614 43.678 64.387 35.569Z" fill="#FE5D17"/>
<path d="M32.1498 67.3386C15.9854 66.9698 1.23132 53.5209 0.594727 35.5867C1.19263 35.5867 1.79053 35.5867 2.4236 35.5867C2.46229 36.0653 2.49746 36.5546 2.53615 37.0475C2.8773 41.1003 3.93946 44.9403 5.85977 48.5285C6.87972 50.4326 7.92781 52.3225 9.32408 53.9783C12.1659 57.3397 15.4192 60.194 19.3723 62.1725C21.8835 63.4277 24.5037 64.3637 27.2611 64.8672C28.7699 65.1438 30.3034 65.2927 31.8298 65.4806C32.0725 65.509 32.1569 65.5799 32.1463 65.8246C32.1393 66.3281 32.1498 66.8351 32.1498 67.3386Z" fill="#222325"/>
<path d="M34.6855 3.00158C34.6855 2.40945 34.6855 1.81731 34.6855 1.17554C43.1898 1.65421 50.5792 4.72126 56.6004 10.7844C62.6462 16.8689 65.7588 24.3185 66.2723 33.009C65.6498 33.009 65.1117 33.0232 64.5736 32.9948C64.4962 32.9913 64.3766 32.8034 64.359 32.6899C64.155 31.1652 64.046 29.6264 63.7611 28.1195C63.005 24.088 61.5032 20.3543 59.21 16.9469C55.6859 11.7099 51.0645 7.82731 45.2684 5.38076C42.3633 4.15394 39.3316 3.42352 36.1909 3.16469C35.7336 3.13277 35.2694 3.08313 34.8051 3.04059C34.77 3.03704 34.7348 3.01931 34.6855 3.00158Z" fill="#FE5D17"/>
<path d="M32.1282 1.18262C32.1282 1.83503 32.1282 2.41653 32.1282 3.0193C31.3966 3.09021 30.6862 3.16113 29.9722 3.23204C27.053 3.51925 24.2499 4.27448 21.5383 5.39493C18.1056 6.81322 15.0598 8.83783 12.3341 11.3695C9.43957 14.0571 7.14645 17.188 5.45122 20.7585C4.09363 23.6199 3.15106 26.6196 2.76067 29.7753C2.64109 30.7468 2.54964 31.7184 2.46172 32.6934C2.44061 32.9345 2.37027 33.0267 2.12408 33.0196C1.62114 33.0019 1.12171 33.0125 0.5625 33.0125C0.981031 24.5028 4.0655 17.1738 9.90734 11.1284C15.9602 4.86662 23.4375 1.64711 32.1282 1.18262Z" fill="#222325"/>
<path d="M62.4946 9.67813C60.0116 9.67813 57.9893 7.63934 57.9893 5.13606C57.9893 2.63278 60.0116 0.593994 62.4946 0.593994C64.9777 0.593994 67 2.63278 67 5.13606C67 7.63934 64.9777 9.67813 62.4946 9.67813ZM62.4946 1.08685C60.2789 1.08685 58.4781 2.90226 58.4781 5.13606C58.4781 7.36986 60.2789 9.18527 62.4946 9.18527C64.7104 9.18527 66.5111 7.36986 66.5111 5.13606C66.5111 2.90226 64.7104 1.08685 62.4946 1.08685Z" fill="#222325"/>
<path d="M61.647 3.67163V4.14676H60.8732V6.6004H60.2894V4.14676H59.5156V3.67163H61.647Z" fill="#222325"/>
<path d="M65.2376 3.67163V6.59685H64.6538V4.6928L63.8765 6.59685H63.4369L62.6561 4.6928V6.59685H62.0723V3.67163H62.7335L63.6549 5.8487L64.5799 3.67163H65.2376Z" fill="#222325"/>
</svg>
