<svg width="43" height="44" viewBox="0 0 43 44" fill="none" xmlns="http://www.w3.org/2000/svg">
<path d="M24.3079 41.0691C24.3079 40.9869 24.3079 40.8979 24.3079 40.8112C24.3079 35.6984 24.3079 30.5879 24.2988 25.4752C24.2988 25.2286 24.3713 25.0689 24.5841 24.9616C25.1886 24.6603 25.7908 24.359 26.3953 24.0555C27.4119 23.5442 28.4284 23.0306 29.4427 22.5171C29.5061 22.4851 29.565 22.4417 29.6691 22.3778C29.5355 22.2957 29.4337 22.2226 29.325 22.1656C27.7266 21.3461 26.1282 20.5245 24.5252 19.7119C24.3509 19.6229 24.3079 19.5179 24.3079 19.333C24.3124 14.2043 24.3124 9.07552 24.3124 3.94906C24.3124 3.8532 24.3124 3.75733 24.3124 3.60669C26.2006 3.86461 27.9734 4.3873 29.6714 5.16791C33.1988 6.79075 35.9813 9.29235 37.9555 12.6339C41.6572 18.8902 41.6368 26.92 37.1721 33.2949C35.1164 36.2302 32.4358 38.3963 29.1552 39.8046C27.4685 40.5258 24.9305 41.1832 24.3079 41.0691ZM29.8231 11.584C29.7959 11.5999 29.771 11.6159 29.7438 11.6319C29.7438 14.2887 29.7438 16.9432 29.7438 19.6206C31.4668 19.6206 33.1671 19.6206 34.899 19.6206C34.1768 16.2859 32.438 13.6496 29.8231 11.584ZM34.9217 25.1305C33.1557 25.1305 31.4555 25.1305 29.7597 25.1305C29.7597 27.8079 29.7597 30.4624 29.7597 33.1169C29.7823 33.126 29.8072 33.1352 29.8299 33.142C32.4675 31.0992 34.1497 28.4355 34.9217 25.1305Z" fill="#E4E4E4"/>
<path d="M19.3778 3.22998C19.3778 7.02575 19.3778 10.7599 19.3778 14.5328C17.5779 14.5328 15.787 14.5328 13.978 14.5328C13.978 13.435 13.978 12.3394 13.978 11.2438C13.9509 11.2324 13.9237 11.221 13.8988 11.2095C10.8922 13.524 9.11489 16.5916 8.62133 20.3806C7.90363 25.8836 10.8944 30.6403 13.9509 32.7699C13.9509 31.6423 13.9509 30.5422 13.9509 29.4283C15.7847 29.4283 17.5756 29.4283 19.38 29.4283C19.38 33.2013 19.38 36.9559 19.38 40.7654C13.3826 39.8159 8.82962 36.7323 5.6328 31.5784C2.14844 25.0163 2.1326 18.4747 5.89769 12.0404C7.73156 8.9088 10.3646 6.57153 13.6248 4.98064C15.4406 4.09276 17.3424 3.49931 19.3778 3.22998Z" fill="#E2E2E2"/>
<path d="M21.0596 3.10663C21.1501 3.10206 21.2226 3.09521 21.295 3.09521C21.7343 3.09521 22.1712 3.09521 22.6331 3.09521C22.6331 15.6831 22.6331 28.2687 22.6331 40.8749C22.1146 40.8749 21.5984 40.8749 21.0596 40.8749C21.0596 28.3029 21.0596 15.7196 21.0596 3.10663Z" fill="#E2E2E2"/>
<path d="M41.7862 22.8229C42.1846 22.8229 42.5582 22.8229 42.9997 22.8229C42.7506 27.1322 41.4828 31.0558 38.9289 34.5297C34.8854 40.0305 29.429 42.8654 22.6709 43.3173C22.6709 42.8996 22.6709 42.5116 22.6709 42.0962C27.8171 41.7926 32.3089 39.9164 35.9563 36.2188C39.59 32.5348 41.5122 28.0429 41.7862 22.8229Z" fill="#E4E4E4"/>
<path d="M21.0346 43.2737C10.6291 43.0364 1.13147 34.3789 0.72168 22.8341C1.10657 22.8341 1.49145 22.8341 1.89898 22.8341C1.92388 23.1422 1.94652 23.4572 1.97143 23.7745C2.19104 26.3834 2.87478 28.8553 4.11094 31.1652C4.76751 32.3909 5.4422 33.6074 6.34102 34.6733C8.17036 36.8371 10.2646 38.6745 12.8094 39.9482C14.4259 40.7562 16.1126 41.3587 17.8876 41.6828C18.8589 41.8609 19.846 41.9567 20.8286 42.0777C20.9848 42.096 21.0391 42.1416 21.0324 42.2991C21.0278 42.6232 21.0346 42.9496 21.0346 43.2737Z" fill="#E2E2E2"/>
<path d="M22.667 1.85822C22.667 1.47704 22.667 1.09587 22.667 0.682739C28.1414 0.990874 32.8982 2.96522 36.7742 6.86827C40.6661 10.785 42.6698 15.5805 43.0003 21.1749C42.5996 21.1749 42.2532 21.184 41.9068 21.1657C41.857 21.1635 41.78 21.0425 41.7687 20.9694C41.6374 19.988 41.5672 18.9974 41.3838 18.0273C40.897 15.4321 39.9303 13.0287 38.4541 10.8352C36.1856 7.464 33.2106 4.96468 29.4795 3.38976C27.6094 2.60002 25.6578 2.12983 23.636 1.96321C23.3417 1.94267 23.0428 1.91072 22.744 1.88333C22.7213 1.88104 22.6987 1.86963 22.667 1.85822Z" fill="#E4E4E4"/>
<path d="M21.0209 0.687378C21.0209 1.10735 21.0209 1.48168 21.0209 1.8697C20.55 1.91535 20.0927 1.961 19.6331 2.00665C17.7539 2.19153 15.9495 2.6777 14.2039 3.39897C11.9942 4.31196 10.0335 5.61526 8.2789 7.24495C6.4156 8.97507 4.93945 10.9905 3.84818 13.289C2.97427 15.1309 2.3675 17.0619 2.1162 19.0933C2.03922 19.7187 1.98035 20.3441 1.92375 20.9718C1.91017 21.127 1.86489 21.1864 1.7064 21.1818C1.38265 21.1704 1.06115 21.1772 0.701172 21.1772C0.970592 15.6993 2.95615 10.9814 6.71672 7.08974C10.6131 3.05888 15.4265 0.986383 21.0209 0.687378Z" fill="#E2E2E2"/>
</svg>
