<svg width="45" height="44" viewBox="0 0 45 44" fill="none" xmlns="http://www.w3.org/2000/svg">
<path fill-rule="evenodd" clip-rule="evenodd" d="M19.3589 2.9536C19.4524 3.16401 19.5849 3.56146 19.7096 3.56146H25.8584C25.9753 3.56146 26.0064 3.38222 26.0532 3.27311L26.4506 2.26001C26.5442 2.02621 26.6377 1.80021 26.7234 1.57421C26.7857 1.42614 26.965 1.03649 26.965 0.888417C26.8013 0.849451 26.6221 0.763727 26.4662 0.701382C26.3337 0.64683 26.1155 0.537726 25.9753 0.529933L25.5778 1.54304C25.5155 1.69111 25.2583 2.47821 25.1336 2.47821H23.2788V0H22.1956V2.48601H20.3954C20.3019 2.48601 20.2629 2.34573 20.2317 2.26001L19.468 0.506553C19.3277 0.537726 19.0939 0.654623 18.9614 0.716968L18.4783 0.927382L19.3589 2.9536Z" fill="#B0862C"/>
<path fill-rule="evenodd" clip-rule="evenodd" d="M18.3224 5.15906H25.2349L27.23 11.0117C28.1885 10.7857 29.1237 10.17 30.1758 10.17C31.4071 10.17 32.35 10.5675 33.1839 11.3C33.9632 11.9858 34.3061 12.7807 34.7269 13.6847C37.8832 21.6337 41.1251 29.5515 44.3437 37.4772C44.6788 38.3188 41.9122 38.4201 41.2108 38.2409C41.1719 38.2331 38.7248 36.0276 38.53 35.8562C38.2884 35.6614 36.7921 35.9263 36.4103 35.9653C35.8959 36.0121 36.0596 35.9263 35.7089 35.6536L33.7294 33.8767C33.4489 33.5884 31.8747 33.83 31.3915 33.8923C31.0408 33.9391 30.3784 33.1364 30.0822 33.0585C30.316 33.5027 30.5265 34.1729 30.7213 34.6638L32.3423 38.7396C32.9969 40.384 31.9994 40.6412 31.6409 42.1686C31.4694 42.0829 29.4666 41.8803 28.9756 41.8413C28.508 42.5349 28.0716 43.2908 27.6274 44C26.8169 43.9299 25.6947 43.6415 24.8686 43.4935C24.705 43.4623 24.7128 43.4545 24.6582 43.3142C24.6193 43.2051 24.5803 43.1116 24.5413 43.0103L22.6788 38.2876L20.8162 43.0103C20.7773 43.1038 20.7383 43.2051 20.6993 43.3142C20.6448 43.4545 20.6604 43.4623 20.4889 43.4935C19.6628 43.6493 18.5406 43.9377 17.7301 44C17.2859 43.2908 16.8495 42.5349 16.3819 41.8413C15.891 41.8803 13.8881 42.0907 13.7167 42.1686C13.3582 40.6412 12.3607 40.3762 13.0153 38.7396L14.6363 34.6638C14.8311 34.1729 15.0415 33.5027 15.2753 33.0585C14.948 33.1442 14.3245 33.9391 13.9661 33.8923C13.4829 33.83 11.9087 33.5884 11.6281 33.8767L9.65646 35.6536C9.30577 35.9263 9.46163 36.0121 8.95508 35.9653C8.58101 35.9341 7.07693 35.6614 6.83534 35.8562C6.64052 36.0276 4.19347 38.2331 4.15451 38.2409C3.46092 38.4201 0.686567 38.3188 1.02167 37.4772C4.23244 29.5515 7.48217 21.6337 10.6384 13.6847C11.0592 12.7807 11.4021 11.9858 12.1814 11.3C13.0153 10.5675 13.9583 10.17 15.1896 10.17C15.9923 10.17 17.0132 10.6376 17.7925 10.8948C17.886 10.926 18.0341 10.9883 18.1276 11.0117L19.7252 6.23451H17.2548V6.22672C17.2548 5.64223 17.7379 5.15906 18.3224 5.15906ZM24.5024 6.2423H20.863L19.1485 11.378C20.372 11.6663 21.4942 12.204 22.6788 12.5781C23.8633 12.204 24.9933 11.6585 26.2091 11.378L24.5024 6.2423ZM22.6788 34.9522C23.2321 34.0326 23.7854 33.113 24.3309 32.1934C24.5102 31.9051 24.3855 31.8661 24.1205 31.1959L22.6788 27.5643L21.237 31.1959C20.9721 31.8661 20.8474 31.9051 21.0266 32.1934C21.5799 33.1208 22.1333 34.0326 22.6788 34.9522ZM22.6788 24.8211C23.1775 24.5406 25.3362 23.4184 25.4064 23.317L26.9884 19.927C26.3961 20.0673 22.7255 21.7662 22.671 21.7506C22.5775 21.7818 19.0472 20.0907 18.3536 19.927L19.9356 23.317C20.0213 23.4184 22.18 24.5406 22.6788 24.8211ZM22.6788 20.5895C24.1517 19.927 26.3493 19.3348 27.6352 18.4619C27.7755 18.3684 28.9444 15.6876 29.1237 15.3057C28.9756 15.3369 28.8665 15.407 28.734 15.4538C26.8871 16.1552 24.5413 17.2072 22.7255 17.7216C22.4684 17.7917 17.2548 15.5395 16.2416 15.3057L17.6522 18.3684C17.9094 18.8438 21.8761 20.2232 22.6788 20.5895ZM22.6788 16.6072C23.9958 16.1084 28.2742 14.2225 29.4198 14.2225C30.316 14.2225 31.0564 15.0174 31.3915 15.7889L38.8339 34.3443C38.9976 34.7574 39.021 34.8976 39.3794 35.1782C40.0964 35.7549 40.8601 36.5108 41.5615 37.1343C42.0057 37.0953 42.4967 37.0174 42.9721 37.0174C42.8864 36.6589 42.4421 35.6847 42.3019 35.3185L34.7192 16.576C34.0879 15.0018 33.5814 13.0301 32.2176 11.9079C30.6823 10.6376 28.9133 11.5884 27.3001 12.1261C26.7858 12.3054 22.8424 13.7627 22.6866 13.7003C22.5229 13.7627 18.5874 12.2976 18.073 12.1261C16.4599 11.5884 14.6908 10.6376 13.1556 11.9079C11.7918 13.0301 11.2852 15.0018 10.654 16.576L3.06347 35.3185C2.9154 35.6847 2.47119 36.6589 2.39326 37.0174C2.86864 37.0174 3.35961 37.1031 3.80382 37.1343C4.5052 36.5108 5.26893 35.7549 5.98589 35.1782C6.33658 34.8976 6.36776 34.7574 6.53141 34.3443L13.9738 15.7889C14.3012 15.0096 15.0415 14.2225 15.9455 14.2225C17.208 14.2225 21.1201 16.0149 22.6788 16.6072ZM17.0132 31.5856C16.7248 32.3103 13.8725 39.3319 13.8725 39.5657C13.8725 39.6826 14.3557 40.7581 14.4103 41.0074C14.9636 40.9451 15.7273 40.797 16.265 40.797C17.2625 38.2954 18.2445 35.7861 19.2498 33.2845C20.185 30.9309 21.1591 27.9929 22.2268 25.7719C21.9696 25.7095 19.9979 24.5328 19.7953 24.5094C19.7564 24.7198 17.3327 30.7673 17.0132 31.5856ZM21.9852 35.9185C21.8215 35.6536 20.5279 33.4091 20.4032 33.2689L17.2859 41.1867C17.2859 41.327 18.1276 42.6206 18.2445 42.8077C18.3848 42.8077 19.7875 42.5427 19.8655 42.5115C20.6526 40.4931 21.4397 38.4747 22.2502 36.4641C22.2735 36.3316 22.0943 36.1056 21.9852 35.9185ZM17.4652 20.4881C17.4574 20.4959 12.4698 32.2168 12.4308 32.6688C12.7503 32.7467 13.2179 32.7156 13.5842 32.7779C13.8959 32.8247 14.0362 32.6298 14.4181 32.3415C14.909 31.9752 15.3766 31.6167 15.8754 31.2504C16.1325 31.0556 16.1481 30.8764 16.3196 30.44L18.8601 24.0184C19.1251 23.3482 17.6756 21.3766 17.4652 20.4881ZM14.683 16.8332C12.3295 22.5767 10.0773 28.3592 7.77052 34.1261C7.71597 34.2586 7.55231 34.6171 7.54452 34.7418C7.78611 34.7963 8.66673 34.8353 8.9239 34.8898C9.56294 34.3132 10.1942 33.7053 10.8332 33.1442C11.2774 32.7545 11.1761 32.8714 11.4177 32.2636C13.0153 28.2345 14.7687 24.2678 16.3741 20.2466C16.8183 19.1399 16.9197 19.3114 16.6391 18.7503C16.1481 17.7761 15.7117 16.7552 15.2519 15.7577C15.0649 15.8902 14.7921 16.576 14.683 16.8332ZM28.3522 31.5856C28.0327 30.7673 25.609 24.7198 25.5622 24.5094C25.3596 24.525 23.3957 25.7095 23.1308 25.7719C24.1984 28.0007 25.1804 30.9309 26.1078 33.2845C27.1131 35.7861 28.095 38.2954 29.0925 40.797C29.638 40.797 30.394 40.9373 30.9473 41.0074C31.0018 40.7659 31.485 39.6904 31.485 39.5657C31.4928 39.3319 28.6405 32.3103 28.3522 31.5856ZM23.3724 35.9185C23.2633 36.1056 23.0762 36.3316 23.1074 36.4563C23.9101 38.4669 24.705 40.4853 25.4921 42.5037C25.57 42.5427 26.965 42.7999 27.1131 42.7999C27.23 42.6128 28.0716 41.3192 28.0716 41.1789L24.9544 33.2611C24.8297 33.4091 23.536 35.6458 23.3724 35.9185ZM27.8924 20.4881C27.6898 21.3688 26.2324 23.3482 26.4974 24.0106L29.038 30.4322C29.2172 30.8686 29.225 31.0556 29.4822 31.2427C29.9809 31.6089 30.4485 31.9674 30.9395 32.3337C31.3214 32.6142 31.4616 32.8169 31.7734 32.7701C32.1318 32.7156 32.5994 32.7389 32.9267 32.661C32.8956 32.2168 27.9002 20.4959 27.8924 20.4881ZM30.6745 16.8332C30.5654 16.576 30.2927 15.8902 30.1056 15.7499C29.6458 16.7396 29.2016 17.7761 28.7184 18.7425C28.4379 19.3036 28.5392 19.1321 28.9834 20.2388C30.5888 24.2678 32.3423 28.2345 33.9398 32.2558C34.1814 32.8714 34.0801 32.7467 34.5243 33.1364C35.1634 33.6975 35.8024 34.3054 36.4336 34.882C36.683 34.8197 37.5714 34.7885 37.813 34.734C37.8052 34.6171 37.6416 34.2586 37.587 34.1183C35.2881 28.367 33.028 22.5767 30.6745 16.8332Z" fill="#B0862C"/>
<path fill-rule="evenodd" clip-rule="evenodd" d="M22.0865 6.93588C22.367 6.93588 22.6008 7.16188 22.6008 7.45023C22.6008 7.73078 22.367 7.96458 22.0865 7.96458C21.8059 7.96458 21.5721 7.73858 21.5721 7.45023C21.5721 7.16968 21.8059 6.93588 22.0865 6.93588Z" fill="#B0862C"/>
</svg>
