<svg width="244" height="78" viewBox="0 0 244 78" fill="none" xmlns="http://www.w3.org/2000/svg">
<path d="M42.2348 68.9134C42.2348 68.7858 42.2348 68.6475 42.2348 68.5128C42.2348 60.5703 42.2348 52.6315 42.2207 44.6891C42.2207 44.3061 42.3332 44.0579 42.6639 43.8913C43.6029 43.4232 44.5384 42.9552 45.4775 42.4836C47.0567 41.6894 48.6358 40.8916 50.2115 40.0938C50.31 40.0442 50.4014 39.9768 50.5632 39.8775C50.3557 39.7499 50.1974 39.6364 50.0286 39.5478C47.5455 38.2749 45.0625 36.9984 42.5724 35.7361C42.3016 35.5978 42.2348 35.4347 42.2348 35.1475C42.2418 27.1803 42.2418 19.2131 42.2418 11.2494C42.2418 11.1005 42.2418 10.9515 42.2418 10.7175C45.175 11.1182 47.9289 11.9302 50.5667 13.1428C56.0463 15.6638 60.3688 19.5499 63.4356 24.7409C69.186 34.4597 69.1544 46.9335 62.2187 56.8367C59.0252 61.3965 54.861 64.7614 49.7648 66.9491C47.1446 68.0695 43.202 69.0907 42.2348 68.9134ZM50.8023 23.1098C50.7601 23.1346 50.7214 23.1595 50.6792 23.1843C50.6792 27.3115 50.6792 31.4352 50.6792 35.5943C53.3557 35.5943 55.997 35.5943 58.6876 35.5943C57.5657 30.414 54.8646 26.3187 50.8023 23.1098ZM58.7228 44.1537C55.9795 44.1537 53.3381 44.1537 50.7039 44.1537C50.7039 48.3128 50.7039 52.4365 50.7039 56.5601C50.739 56.5743 50.7777 56.5885 50.8129 56.5991C54.9103 53.4257 57.5235 49.2879 58.7228 44.1537Z" fill="#FE5D17"/>
<path d="M34.5748 10.1326C34.5748 16.0291 34.5748 21.8299 34.5748 27.691C31.7788 27.691 28.9968 27.691 26.1866 27.691C26.1866 25.9855 26.1866 24.2835 26.1866 22.5816C26.1444 22.5639 26.1022 22.5461 26.0635 22.5284C21.3929 26.1238 18.632 30.8892 17.8652 36.7751C16.7503 45.3238 21.3964 52.7131 26.1444 56.0213C26.1444 54.2697 26.1444 52.5606 26.1444 50.8303C28.9932 50.8303 31.7752 50.8303 34.5783 50.8303C34.5783 56.6914 34.5783 62.5241 34.5783 68.4419C25.2616 66.9669 18.1888 62.1766 13.2227 54.1704C7.80995 43.9765 7.78533 33.8144 13.6342 23.819C16.483 18.9543 20.5734 15.3235 25.638 12.8521C28.4586 11.4729 31.413 10.551 34.5748 10.1326Z" fill="#222325"/>
<path d="M37.1885 9.94107C37.3292 9.93398 37.4417 9.92334 37.5543 9.92334C38.2366 9.92334 38.9154 9.92334 39.6328 9.92334C39.6328 29.478 39.6328 49.0291 39.6328 68.6121C38.8274 68.6121 38.0255 68.6121 37.1885 68.6121C37.1885 49.0823 37.1885 29.5347 37.1885 9.94107Z" fill="#222325"/>
<path d="M69.387 40.569C70.006 40.569 70.5863 40.569 71.2721 40.569C70.8852 47.2633 68.9157 53.3584 64.9484 58.755C58.667 67.3001 50.1908 71.7039 39.6924 72.406C39.6924 71.7571 39.6924 71.1543 39.6924 70.509C47.6867 70.0374 54.6645 67.1229 60.3305 61.3788C65.9754 55.656 68.9614 48.678 69.387 40.569Z" fill="#FE5D17"/>
<path d="M37.1498 72.3386C20.9854 71.9698 6.23132 58.5209 5.59473 40.5867C6.19263 40.5867 6.79053 40.5867 7.4236 40.5867C7.46229 41.0653 7.49746 41.5546 7.53615 42.0475C7.8773 46.1003 8.93946 49.9403 10.8598 53.5285C11.8797 55.4326 12.9278 57.3225 14.3241 58.9783C17.1659 62.3397 20.4192 65.194 24.3723 67.1725C26.8835 68.4277 29.5037 69.3637 32.2611 69.8672C33.7699 70.1438 35.3034 70.2927 36.8298 70.4806C37.0725 70.509 37.1569 70.5799 37.1463 70.8246C37.1393 71.3281 37.1498 71.8351 37.1498 72.3386Z" fill="#222325"/>
<path d="M39.6855 8.00158C39.6855 7.40945 39.6855 6.81731 39.6855 6.17554C48.1898 6.65421 55.5792 9.72126 61.6004 15.7844C67.6462 21.8689 70.7588 29.3185 71.2723 38.009C70.6498 38.009 70.1117 38.0232 69.5736 37.9948C69.4962 37.9913 69.3766 37.8034 69.359 37.6899C69.155 36.1652 69.046 34.6264 68.7611 33.1195C68.005 29.088 66.5032 25.3543 64.21 21.9469C60.6859 16.7099 56.0645 12.8273 50.2684 10.3808C47.3633 9.15394 44.3316 8.42352 41.1909 8.16469C40.7336 8.13277 40.2694 8.08313 39.8051 8.04059C39.77 8.03704 39.7348 8.01931 39.6855 8.00158Z" fill="#FE5D17"/>
<path d="M37.1282 6.18262C37.1282 6.83503 37.1282 7.41653 37.1282 8.0193C36.3966 8.09021 35.6862 8.16113 34.9722 8.23204C32.053 8.51925 29.2499 9.27448 26.5383 10.3949C23.1056 11.8132 20.0598 13.8378 17.3341 16.3695C14.4396 19.0571 12.1464 22.188 10.4512 25.7585C9.09363 28.6199 8.15106 31.6196 7.76067 34.7753C7.64109 35.7468 7.54964 36.7184 7.46172 37.6934C7.44061 37.9345 7.37027 38.0267 7.12408 38.0196C6.62114 38.0019 6.12171 38.0125 5.5625 38.0125C5.98103 29.5028 9.0655 22.1738 14.9073 16.1284C20.9602 9.86662 28.4375 6.64711 37.1282 6.18262Z" fill="#222325"/>
<path d="M67.4946 14.6781C65.0116 14.6781 62.9893 12.6393 62.9893 10.1361C62.9893 7.63278 65.0116 5.59399 67.4946 5.59399C69.9777 5.59399 72 7.63278 72 10.1361C72 12.6393 69.9777 14.6781 67.4946 14.6781ZM67.4946 6.08685C65.2789 6.08685 63.4781 7.90226 63.4781 10.1361C63.4781 12.3699 65.2789 14.1853 67.4946 14.1853C69.7104 14.1853 71.5111 12.3699 71.5111 10.1361C71.5111 7.90226 69.7104 6.08685 67.4946 6.08685Z" fill="#222325"/>
<path d="M66.647 8.67163V9.14676H65.8732V11.6004H65.2894V9.14676H64.5156V8.67163H66.647Z" fill="#222325"/>
<path d="M70.2376 8.67163V11.5968H69.6538V9.6928L68.8765 11.5968H68.4369L67.6561 9.6928V11.5968H67.0723V8.67163H67.7335L68.6549 10.8487L69.5799 8.67163H70.2376Z" fill="#222325"/>
<path d="M89.0352 41.4526C89.0352 40.782 89.0352 40.186 89.0352 39.5112C140.685 39.5112 192.318 39.5112 243.996 39.5112C243.996 40.1653 243.996 40.7862 243.996 41.4526C192.338 41.4526 140.755 41.4526 89.0352 41.4526Z" fill="#222325"/>
<path d="M244 20.4076C244 21.0161 244 21.6122 244 22.2828C192.367 22.2828 140.763 22.2828 89.0723 22.2828C89.0723 21.6867 89.0723 21.074 89.0723 20.4076C140.714 20.4076 192.322 20.4076 244 20.4076Z" fill="#222325"/>
<path d="M158.468 25.3749C161.798 25.3749 165.037 25.346 168.281 25.3915C169.492 25.408 170.121 26.0414 170.174 27.246C170.232 28.5582 170.56 30.0153 168.909 30.7355C170.289 31.7166 170.827 33.4262 170.182 34.9785C170.01 35.3966 169.546 35.7774 169.123 35.9844C168.655 36.2162 168.084 36.3238 167.558 36.328C164.664 36.3569 161.765 36.3445 158.87 36.3404C158.751 36.3404 158.632 36.3031 158.468 36.2742C158.468 32.6604 158.468 29.0839 158.468 25.3749ZM161.079 34.4238C163.149 34.4238 165.115 34.4362 167.082 34.4155C167.76 34.4073 168.15 34.043 168.117 33.3227C168.088 32.6852 168.343 31.7745 167.361 31.7373C165.28 31.6504 163.194 31.7125 161.079 31.7125C161.079 32.6521 161.079 33.4759 161.079 34.4238ZM161.12 27.1094C161.12 28.107 161.12 28.9514 161.12 29.8456C163.124 29.8456 165.054 29.8414 166.984 29.8456C167.727 29.8456 167.986 29.4523 167.953 28.7486C167.92 28.0325 168.133 27.1425 167.025 27.1176C165.066 27.0804 163.108 27.1094 161.12 27.1094Z" fill="#222325"/>
<path d="M115.889 25.3708C117.35 25.3708 118.812 25.3459 120.274 25.379C121.961 25.4163 122.594 26.0165 122.635 27.7096C122.684 29.7917 122.688 31.878 122.635 33.956C122.594 35.6739 121.925 36.3155 120.2 36.3321C117.309 36.361 114.415 36.361 111.524 36.3321C109.824 36.3155 109.147 35.6325 109.118 33.9353C109.085 31.8863 109.089 29.8331 109.118 27.7841C109.138 26.0538 109.787 25.4039 111.499 25.3749C112.965 25.3501 114.427 25.3708 115.889 25.3708ZM119.958 34.1837C119.958 31.8614 119.958 29.6096 119.958 27.3701C117.182 27.3701 114.476 27.3701 111.766 27.3701C111.766 29.6758 111.766 31.907 111.766 34.1837C114.505 34.1837 117.19 34.1837 119.958 34.1837Z" fill="#222325"/>
<path d="M217.606 25.375C219.068 25.375 220.53 25.346 221.992 25.3833C223.687 25.4247 224.266 26.029 224.283 27.7469C224.299 29.7959 224.299 31.8491 224.283 33.8982C224.266 35.6574 223.667 36.3115 221.938 36.3322C219.015 36.3694 216.091 36.3694 213.168 36.3322C211.501 36.3115 210.893 35.7692 210.84 34.0886C210.766 31.8822 210.774 29.6676 210.856 27.4613C210.914 25.9421 211.509 25.4205 213.032 25.3833C214.556 25.346 216.083 25.375 217.606 25.375ZM213.443 34.1796C216.243 34.1796 218.961 34.1796 221.708 34.1796C221.708 31.8698 221.708 29.6138 221.708 27.3495C218.92 27.3495 216.202 27.3495 213.443 27.3495C213.443 29.6345 213.443 31.8657 213.443 34.1796Z" fill="#222325"/>
<path d="M198.982 25.3749C200.477 25.3749 201.971 25.3377 203.462 25.3832C205.001 25.4288 205.584 25.9338 205.634 27.4571C205.712 29.7297 205.712 32.0064 205.621 34.2748C205.564 35.736 205.047 36.2618 203.605 36.299C200.493 36.3735 197.376 36.3735 194.264 36.299C192.786 36.2618 192.24 35.6036 192.215 34.0885C192.178 31.9112 192.178 29.7297 192.215 27.5523C192.244 26.029 192.86 25.4246 194.404 25.3791C195.931 25.3418 197.459 25.3749 198.982 25.3749ZM203.059 27.3536C200.247 27.3536 197.528 27.3536 194.794 27.3536C194.794 29.6676 194.794 31.9236 194.794 34.1713C197.586 34.1713 200.304 34.1713 203.059 34.1713C203.059 31.8822 203.059 29.651 203.059 27.3536Z" fill="#222325"/>
<path d="M177.889 32.2009C177.889 33.5504 177.889 34.8874 177.889 36.2824C177.039 36.2824 176.263 36.2824 175.413 36.2824C175.413 32.6811 175.413 29.0798 175.413 25.3708C176.567 25.3708 177.704 25.3708 178.838 25.3708C180.808 25.3708 182.783 25.3584 184.754 25.3749C186.569 25.3915 187.222 26.0662 187.226 27.8876C187.23 28.5292 187.234 29.1708 187.226 29.8125C187.201 31.3316 186.532 32.0353 185.017 32.114C184.512 32.1388 184.003 32.1181 183.178 32.1181C184.955 33.5835 186.524 34.875 188.306 36.3445C187.008 36.3445 185.949 36.3652 184.89 36.328C184.68 36.3197 184.455 36.1003 184.274 35.9347C183.362 35.0903 182.356 34.3162 181.589 33.3517C180.607 32.114 179.416 31.936 177.889 32.2009ZM177.914 30.1891C179.897 30.1891 181.769 30.185 183.642 30.1933C184.311 30.1974 184.652 29.9118 184.611 29.2081C184.59 28.8231 184.693 28.405 184.574 28.0656C184.471 27.7676 184.134 27.3495 183.892 27.3412C181.905 27.2832 179.917 27.3081 177.914 27.3081C177.914 28.314 177.914 29.1998 177.914 30.1891Z" fill="#222325"/>
<path d="M145.025 31.4889C145.025 32.4534 145.025 33.2771 145.025 34.2334C146.491 34.2334 147.944 34.2334 149.393 34.2334C150.818 34.2334 152.247 34.2334 153.738 34.2334C153.738 34.9371 153.738 35.587 153.738 36.2907C149.981 36.2907 146.244 36.2907 142.43 36.2907C142.43 32.6976 142.43 29.0963 142.43 25.4287C146.121 25.4287 149.821 25.4287 153.565 25.4287C153.565 26.0207 153.565 26.5878 153.565 27.2459C150.757 27.2459 147.944 27.2459 145.058 27.2459C145.058 28.049 145.058 28.761 145.058 29.5599C146.667 29.5599 148.244 29.5599 149.894 29.5599C149.894 30.2305 149.894 30.8183 149.894 31.4848C148.293 31.4889 146.716 31.4889 145.025 31.4889Z" fill="#222325"/>
<path d="M101.472 34.163C101.472 33.4096 101.472 32.7432 101.472 31.9981C102.326 32.1761 103.094 32.3375 103.829 32.4907C103.882 32.5941 103.936 32.648 103.936 32.7018C104.112 35.8643 103.657 36.3486 100.511 36.3486C98.5693 36.3486 96.6312 36.3611 94.6891 36.3445C92.7387 36.3279 92.1146 35.6946 92.1064 33.7449C92.0982 31.7869 92.0941 29.8331 92.1064 27.8752C92.1187 26.0124 92.7182 25.3956 94.5741 25.3791C96.6723 25.3584 98.7746 25.3708 100.873 25.3749C103.648 25.3749 104.195 26.0083 103.878 28.9514C103.131 29.0839 102.363 29.2246 101.476 29.3819C101.476 28.7072 101.476 28.0573 101.476 27.3577C99.1564 27.3577 96.9515 27.3577 94.6932 27.3577C94.6932 29.6344 94.6932 31.8656 94.6932 34.1671C96.931 34.163 99.1318 34.163 101.472 34.163Z" fill="#222325"/>
<path d="M229.683 36.2948C229.683 32.6645 229.683 29.0839 229.683 25.437C230.467 25.437 231.243 25.437 232.122 25.437C232.122 26.8486 232.122 28.2726 232.122 29.9573C233.415 28.9845 234.515 28.1608 235.616 27.3329C235.694 27.2749 235.764 27.2129 235.829 27.1425C237.394 25.5488 239.246 24.9237 241.553 25.5157C239.282 27.1632 237.041 28.7941 234.659 30.5244C237.328 32.4493 239.915 34.3079 242.727 36.3362C241.278 36.3362 240.091 36.3611 238.901 36.3197C238.65 36.3114 238.387 36.092 238.162 35.9264C236.466 34.6805 234.782 33.4262 233.091 32.1761C232.844 31.9939 232.586 31.8284 232.167 31.5427C232.167 33.2358 232.167 34.7467 232.167 36.3031C231.3 36.2948 230.549 36.2948 229.683 36.2948Z" fill="#222325"/>
<path d="M127.989 36.2741C127.989 32.6687 127.989 29.0922 127.989 25.4412C128.798 25.4412 129.603 25.4412 130.478 25.4412C130.478 28.3429 130.478 31.2199 130.478 34.2086C133.229 34.2086 135.91 34.2086 138.653 34.2086C138.653 34.9454 138.653 35.5746 138.653 36.2741C135.13 36.2741 131.586 36.2741 127.989 36.2741Z" fill="#222325"/>
<path d="M93.995 56.1188H97.4605V57.489H92.3115V47.1486H93.995V56.1188Z" fill="#222325"/>
<path d="M106.071 56.9136C105.271 56.4624 104.634 55.8332 104.166 55.026C103.698 54.2188 103.464 53.3081 103.464 52.2981C103.464 51.288 103.698 50.3815 104.166 49.5743C104.634 48.7671 105.266 48.142 106.071 47.6908C106.872 47.2396 107.751 47.012 108.703 47.012C109.668 47.012 110.551 47.2396 111.352 47.6908C112.152 48.142 112.785 48.7671 113.249 49.5743C113.712 50.3815 113.942 51.2839 113.942 52.2981C113.942 53.3081 113.712 54.2188 113.249 55.026C112.785 55.8332 112.152 56.4624 111.352 56.9136C110.551 57.3648 109.668 57.5883 108.703 57.5883C107.751 57.5883 106.872 57.3648 106.071 56.9136ZM110.522 55.651C111.052 55.3406 111.471 54.8935 111.77 54.314C112.07 53.7345 112.222 53.0639 112.222 52.2981C112.222 51.5364 112.07 50.8658 111.77 50.2904C111.471 49.715 111.056 49.2721 110.522 48.9658C109.992 48.6595 109.385 48.5063 108.707 48.5063C108.03 48.5063 107.422 48.6595 106.892 48.9658C106.363 49.2721 105.944 49.715 105.644 50.2904C105.344 50.8658 105.193 51.5364 105.193 52.2981C105.193 53.0639 105.344 53.7345 105.644 54.314C105.944 54.8935 106.359 55.3406 106.892 55.651C107.422 55.9615 108.03 56.1188 108.707 56.1188C109.385 56.1188 109.988 55.9615 110.522 55.651Z" fill="#222325"/>
<path d="M126.084 57.4848L123.723 53.3495H122.437V57.4848H120.754V47.1486H124.293C125.082 47.1486 125.747 47.2893 126.293 47.5666C126.839 47.844 127.246 48.2165 127.517 48.6802C127.788 49.1479 127.923 49.6654 127.923 50.2407C127.923 50.9155 127.73 51.5281 127.34 52.0787C126.95 52.6292 126.355 53.0018 125.546 53.2005L128.083 57.4848H126.084ZM122.441 51.9959H124.302C124.93 51.9959 125.406 51.8386 125.726 51.5198C126.047 51.2011 126.207 50.7747 126.207 50.2407C126.207 49.7068 126.051 49.2845 125.735 48.9823C125.418 48.6802 124.942 48.527 124.302 48.527H122.441V51.9959Z" fill="#222325"/>
<path d="M141.428 55.3736H137.133L136.394 57.4848H134.637L138.312 47.132H140.258L143.933 57.4848H142.163L141.428 55.3736ZM140.956 53.9911L139.289 49.1851L137.605 53.9911H140.956Z" fill="#222325"/>
<path d="M161.493 47.1486V57.4848H159.81V50.4063L156.681 57.4848H155.515L152.374 50.4063V57.4848H150.69V47.1486H152.505L156.106 55.2536L159.691 47.1486H161.493Z" fill="#222325"/>
<path d="M179.552 47.1486V57.4848H177.868V47.1486H179.552Z" fill="#222325"/>
<path d="M193.73 51.7144C193.483 52.1822 193.089 52.5588 192.547 52.8527C192.005 53.1466 191.311 53.2915 190.465 53.2915H188.605V57.4848H186.922V47.1486H190.461C191.25 47.1486 191.915 47.2852 192.461 47.5584C193.007 47.8316 193.413 48.2 193.684 48.6677C193.955 49.1355 194.091 49.6529 194.091 50.2283C194.099 50.754 193.976 51.2508 193.73 51.7144ZM191.898 51.4702C192.215 51.1763 192.371 50.7623 192.371 50.2283C192.371 49.0982 191.738 48.5311 190.465 48.5311H188.605V51.9089H190.465C191.11 51.9089 191.586 51.7641 191.898 51.4702Z" fill="#222325"/>
<path d="M202.39 57.224C201.84 56.9798 201.404 56.6362 201.092 56.1892C200.776 55.7421 200.62 55.2205 200.62 54.6286H202.419C202.46 55.0757 202.632 55.4399 202.944 55.7297C203.252 56.0153 203.687 56.1602 204.25 56.1602C204.829 56.1602 205.28 56.0195 205.609 55.738C205.933 55.4565 206.098 55.0922 206.098 54.6452C206.098 54.2974 205.995 54.016 205.794 53.7966C205.593 53.5772 205.342 53.4116 205.042 53.2915C204.743 53.1715 204.328 53.0432 203.794 52.9066C203.125 52.7286 202.583 52.5464 202.164 52.3643C201.745 52.1822 201.388 51.8965 201.092 51.5074C200.797 51.1225 200.649 50.605 200.649 49.9593C200.649 49.3632 200.797 48.8458 201.092 48.3987C201.388 47.9516 201.803 47.6122 202.332 47.3721C202.862 47.132 203.478 47.0161 204.176 47.0161C205.17 47.0161 205.983 47.2686 206.619 47.7654C207.251 48.2662 207.604 48.9534 207.674 49.8268H205.814C205.785 49.4501 205.609 49.1272 205.285 48.8582C204.96 48.5891 204.533 48.4566 203.999 48.4566C203.519 48.4566 203.125 48.5808 202.817 48.8292C202.513 49.0776 202.361 49.4336 202.361 49.9013C202.361 50.2201 202.456 50.4808 202.648 50.6837C202.841 50.8865 203.084 51.048 203.379 51.168C203.675 51.288 204.077 51.4164 204.591 51.553C205.268 51.7434 205.822 51.9297 206.249 52.1201C206.676 52.3105 207.042 52.6003 207.342 52.9894C207.641 53.3826 207.793 53.9042 207.793 54.5582C207.793 55.0839 207.654 55.5807 207.375 56.0443C207.095 56.5121 206.685 56.8846 206.151 57.1661C205.613 57.4476 204.985 57.5883 204.254 57.5883C203.56 57.5883 202.94 57.4683 202.39 57.224Z" fill="#222325"/>
<path d="M216.991 56.9136C216.19 56.4624 215.554 55.8332 215.086 55.026C214.618 54.2188 214.384 53.3081 214.384 52.2981C214.384 51.288 214.618 50.3815 215.086 49.5743C215.554 48.7671 216.186 48.142 216.991 47.6908C217.792 47.2396 218.67 47.012 219.623 47.012C220.588 47.012 221.471 47.2396 222.271 47.6908C223.072 48.142 223.704 48.7671 224.168 49.5743C224.632 50.3815 224.862 51.2839 224.862 52.2981C224.862 53.3081 224.632 54.2188 224.168 55.026C223.704 55.8332 223.072 56.4624 222.271 56.9136C221.471 57.3648 220.588 57.5883 219.623 57.5883C218.67 57.5883 217.792 57.3648 216.991 56.9136ZM221.438 55.651C221.968 55.3406 222.386 54.8935 222.686 54.314C222.986 53.7345 223.138 53.0639 223.138 52.2981C223.138 51.5364 222.986 50.8658 222.686 50.2904C222.386 49.715 221.972 49.2721 221.438 48.9658C220.908 48.6595 220.301 48.5063 219.623 48.5063C218.946 48.5063 218.338 48.6595 217.808 48.9658C217.279 49.2721 216.86 49.715 216.56 50.2904C216.26 50.8658 216.108 51.5364 216.108 52.2981C216.108 53.0639 216.26 53.7345 216.56 54.314C216.86 54.8935 217.274 55.3406 217.808 55.651C218.338 55.9615 218.946 56.1188 219.623 56.1188C220.301 56.1188 220.908 55.9615 221.438 55.651Z" fill="#222325"/>
<path d="M240.1 57.4848H238.416L233.353 49.7647V57.4848H231.67V47.132H233.353L238.416 54.8355V47.132H240.1V57.4848Z" fill="#222325"/>
</svg>
