<svg id="Layer_1" viewBox="0 0 512 512" xmlns="http://www.w3.org/2000/svg" data-name="Layer 1"><path d="m102.1 351.881 43.614 77.063 5.268-3.041a7.943 7.943 0 0 1 6.025-.789l116.338 31.148c17.093 4.581 26.833 1.574 41.939-6.125l159.82-98.411c8.056-4.96 9.089-18.536 4.315-26.226-10.566-17.02-39.937-2.762-52.075 4.308l-88.378 51.475c-19.937 11.61-34.83 9.433-55.064 6.143l-59.833-15.744a7.99 7.99 0 0 1 4.125-15.438c19.106 5.12 38.045 11.273 57.415 15.279 9.762 1.194 17.813-1.864 20.523-11.98 2.455-9.165-3.326-17.8-11.979-20.8-26.55-4.861-52.31-14.174-72.568-21.5-29.313-10.6-37.118-13.054-66.02 3.679zm215.828-256.914a67.764 67.764 0 0 0 -47.851 115.747 48.37 48.37 0 0 1 95.7 0 67.764 67.764 0 0 0 -47.849-115.747zm0 64.444a24.456 24.456 0 1 1 24.456-24.455 24.455 24.455 0 0 1 -24.456 24.455zm-170.851 304.421-70.116-123.891a12.552 12.552 0 0 0 -17.056-4.727l-23.849 13.5a12.552 12.552 0 0 0 -4.728 17.056l70.116 123.891a12.552 12.552 0 0 0 17.056 4.728l23.85-13.5a12.551 12.551 0 0 0 4.727-17.057zm-83.731-88.469a8.515 8.515 0 1 1 7.194-9.657 8.515 8.515 0 0 1 -7.194 9.657zm377-241.846a125.237 125.237 0 0 0 -15.205-36.679l10.58-23.82-28.08-28.083-23.828 10.583a125.243 125.243 0 0 0 -36.668-15.2l-9.36-24.318h-39.715l-9.36 24.316a125.231 125.231 0 0 0 -36.668 15.2l-23.829-10.581-28.083 28.084 10.582 23.825a125.219 125.219 0 0 0 -15.2 36.672l-24.312 9.359v39.715l24.31 9.357a125.219 125.219 0 0 0 15.2 36.679l-10.58 23.82 28.084 28.083 23.828-10.583a125.21 125.21 0 0 0 36.669 15.2l9.359 24.316h39.716l9.357-24.31a125.215 125.215 0 0 0 36.678-15.2l23.82 10.58 28.084-28.083-10.583-23.829a125.247 125.247 0 0 0 15.2-36.668l24.315-9.359v-39.719zm-122.418 112.983a83.765 83.765 0 1 1 83.765-83.765 83.773 83.773 0 0 1 -83.765 83.765z" fill-rule="evenodd"/></svg>