<svg width="19" height="24" viewBox="0 0 19 24" fill="none" xmlns="http://www.w3.org/2000/svg">
<path fill-rule="evenodd" clip-rule="evenodd" d="M3.03881 16.3946L4.86985 19.9266L5.09101 19.7873C5.16761 19.7391 5.25859 19.7261 5.34396 19.7511L10.2282 21.1787C10.9458 21.3887 11.3547 21.2509 11.9889 20.898L18.6986 16.3875C19.0368 16.1601 19.0802 15.5379 18.8798 15.1854C18.4362 14.4054 17.2031 15.0589 16.6935 15.3829L12.9831 17.7422C12.1461 18.2743 11.5209 18.1745 10.6714 18.0237L8.15942 17.3021C8.07403 17.2765 8.00139 17.2151 7.95733 17.1312C7.91328 17.0473 7.90138 16.9479 7.92424 16.8545C7.9471 16.7611 8.00286 16.6813 8.07936 16.6326C8.15586 16.584 8.24689 16.5703 8.3326 16.5945C9.13472 16.8292 9.92984 17.1112 10.743 17.2948C11.1529 17.3496 11.4909 17.2094 11.6047 16.7458C11.7077 16.3257 11.465 15.9299 11.1017 15.7924C9.9871 15.5696 8.90562 15.1428 8.05513 14.807C6.82449 14.3212 6.49681 14.2087 5.28342 14.9756L3.03881 16.3946ZM12.0999 4.61933C11.5369 4.61932 10.9865 4.80168 10.5185 5.14333C10.0505 5.48499 9.68582 5.97057 9.47072 6.53859C9.25562 7.10662 9.19974 7.73155 9.31015 8.33427C9.42056 8.93699 9.6923 9.49039 10.091 9.92441C10.1622 9.39833 10.4043 8.91773 10.7731 8.57027C11.1418 8.22281 11.6127 8.03165 12.0998 8.03165C12.587 8.03165 13.0579 8.22281 13.4266 8.57027C13.7954 8.91773 14.0375 9.39833 14.1087 9.92441C14.5074 9.4904 14.7791 8.937 14.8895 8.33429C15 7.73158 14.9441 7.10666 14.729 6.53864C14.5139 5.97061 14.1493 5.48503 13.6813 5.14337C13.2132 4.80171 12.6629 4.61933 12.0999 4.61933ZM12.0999 7.57302C11.8968 7.57302 11.6983 7.50728 11.5295 7.38411C11.3606 7.26094 11.229 7.08588 11.1513 6.88106C11.0736 6.67624 11.0533 6.45086 11.0929 6.23342C11.1325 6.01599 11.2303 5.81626 11.3739 5.6595C11.5175 5.50274 11.7004 5.39599 11.8996 5.35275C12.0988 5.3095 12.3052 5.3317 12.4928 5.41655C12.6804 5.5014 12.8408 5.64507 12.9536 5.82941C13.0664 6.01375 13.1266 6.23047 13.1266 6.45216C13.1266 6.59936 13.1001 6.74511 13.0485 6.88111C12.9969 7.0171 12.9212 7.14066 12.8259 7.24474C12.7306 7.34883 12.6174 7.43139 12.4928 7.48771C12.3682 7.54404 12.2347 7.57302 12.0999 7.57302ZM4.92707 21.5257L1.9834 15.8473C1.91446 15.7153 1.80046 15.6184 1.6663 15.5778C1.53213 15.5372 1.3887 15.5562 1.26734 15.6307L0.266086 16.2494C0.145118 16.3247 0.0563429 16.4491 0.0191511 16.5956C-0.0180406 16.7421 -0.000626065 16.8987 0.067591 17.0312L3.01126 22.7095C3.08019 22.8416 3.19419 22.9385 3.32836 22.9791C3.46252 23.0197 3.60596 23.0007 3.72733 22.9262L4.72862 22.3075C4.8496 22.2322 4.93838 22.1077 4.97557 21.9613C5.01275 21.8148 4.99532 21.6582 4.92707 21.5257ZM1.4118 17.4708C1.34184 17.482 1.27042 17.4703 1.20657 17.4371C1.14272 17.404 1.0893 17.3509 1.05308 17.2846C1.01686 17.2183 0.999464 17.1418 1.00308 17.0647C1.0067 16.9876 1.03118 16.9134 1.07342 16.8515C1.11566 16.7896 1.17376 16.7428 1.24038 16.7169C1.307 16.6911 1.37915 16.6874 1.4477 16.7063C1.51625 16.7252 1.57812 16.7659 1.62549 16.8232C1.67286 16.8805 1.7036 16.9518 1.71382 17.0282C1.72061 17.0789 1.71819 17.1306 1.70668 17.1803C1.69518 17.23 1.67483 17.2767 1.64678 17.3178C1.61873 17.3589 1.58355 17.3936 1.54323 17.4198C1.50291 17.4461 1.45825 17.4634 1.4118 17.4708ZM17.2394 6.38621C17.1098 5.79234 16.8943 5.22483 16.601 4.70508L17.0452 3.61333L15.8663 2.32619L14.8659 2.81125C14.39 2.49116 13.8703 2.25599 13.3265 2.11458L12.9335 1H11.2662L10.8732 2.11449C10.3294 2.25588 9.80976 2.49106 9.33381 2.81115L8.3334 2.32619L7.15439 3.61338L7.59865 4.70536C7.30543 5.22502 7.09001 5.79241 6.96051 6.38616L5.93982 6.81512V8.63539L6.96043 9.06426C7.08989 9.65811 7.30532 10.2256 7.59857 10.7454L7.15439 11.8371L8.33344 13.1243L9.33381 12.6392C9.80977 12.9593 10.3295 13.1945 10.8733 13.3359L11.2662 14.4504H12.9336L13.3264 13.3362C13.8704 13.1948 14.3902 12.9596 14.8663 12.6395L15.8663 13.1244L17.0454 11.8373L16.601 10.7451C16.8942 10.2255 17.1097 9.65816 17.2392 9.06448L18.26 8.63553V6.81507L17.2394 6.38621ZM12.0999 11.5646C11.4044 11.5646 10.7244 11.3394 10.1461 10.9176C9.5678 10.4957 9.11706 9.89611 8.85089 9.19458C8.58472 8.49305 8.51507 7.72111 8.65077 6.97637C8.78646 6.23163 9.12139 5.54754 9.61321 5.01062C10.105 4.47369 10.7316 4.10804 11.4138 3.9599C12.096 3.81176 12.8031 3.88779 13.4457 4.17838C14.0883 4.46896 14.6375 4.96104 15.0239 5.5924C15.4103 6.22376 15.6166 6.96604 15.6166 7.72537C15.6165 8.74357 15.246 9.72004 14.5865 10.44C13.927 11.16 13.0326 11.5645 12.0999 11.5646Z" fill="#7E7E7E"/>
</svg>
