<svg width="20" height="24" viewBox="0 0 20 24" fill="none" xmlns="http://www.w3.org/2000/svg">
<g clip-path="url(#clip0_1_5)">
<path d="M17.5093 12.3392V11.2C17.5093 9.29045 16.7182 7.45909 15.3099 6.10883C13.9016 4.75857 11.9916 4 9.99998 4C8.00839 4 6.09834 4.75857 4.69009 6.10883C3.28181 7.45909 2.49066 9.29045 2.49066 11.2V12.3392C1.61553 12.7086 0.899343 13.3551 0.461982 14.1705C0.0246223 14.9858 -0.10736 15.9203 0.0881303 16.8178C0.283621 17.7153 0.794719 18.5211 1.53586 19.1004C2.277 19.6797 3.2032 19.9973 4.1594 20H5.82812V12H4.1594V11.2C4.1594 9.71477 4.77474 8.2904 5.87006 7.2402C6.96542 6.19 8.45099 5.6 9.99998 5.6C11.549 5.6 13.0346 6.19 14.1299 7.2402C15.2253 8.2904 15.8406 9.71477 15.8406 11.2V12H14.1718V18.4H10.8343V20H15.8406C16.7968 19.9973 17.723 19.6797 18.4641 19.1004C19.2053 18.5211 19.7164 17.7153 19.9119 16.8178C20.1074 15.9203 19.9754 14.9858 19.538 14.1705C19.1006 13.3551 18.3845 12.7086 17.5093 12.3392ZM4.1594 18.4C3.49553 18.4 2.85885 18.1471 2.38943 17.6971C1.92 17.247 1.65629 16.6365 1.65629 16C1.65629 15.3635 1.92 14.753 2.38943 14.3029C2.85885 13.8529 3.49553 13.6 4.1594 13.6V18.4ZM15.8406 18.4V13.6C16.5045 13.6 17.1411 13.8529 17.6106 14.3029C18.08 14.753 18.3437 15.3635 18.3437 16C18.3437 16.6365 18.08 17.247 17.6106 17.6971C17.1411 18.1471 16.5045 18.4 15.8406 18.4Z" fill="#7E7E7E" fill-opacity="0.6"/>
</g>
<defs>
<clipPath id="clip0_1_5">
<rect width="20" height="24" fill="white"/>
</clipPath>
</defs>
</svg>
